HIERARCHY
ROOT Hips
{
	OFFSET 0.00000 0.00000 0.00000
	CHANNELS 6 Xposition Yposition Zposition Zrotation Yrotation Xrotation 
	JOINT LHipJoint
	{
		OFFSET 0 0 0
		CHANNELS 3 Zrotation Yrotation Xrotation
		JOINT LeftUpLeg
		{
			OFFSET 1.26600 -1.82114 0.91038
			CHANNELS 3 Zrotation Yrotation Xrotation
			JOINT LeftLeg
			{
				OFFSET 2.50076 -6.87080 0.00000
				CHANNELS 3 Zrotation Yrotation Xrotation
				JOINT LeftFoot
				{
					OFFSET 2.57364 -7.07102 0.00000
					CHANNELS 3 Zrotation Yrotation Xrotation
					JOINT LeftToeBase
					{
						OFFSET 0.13572 -0.37290 1.97004
						CHANNELS 3 Zrotation Yrotation Xrotation
						End Site
						{
							OFFSET 0.00000 -0.00000 1.01383
						}
					}
				}
			}
		}
	}
	JOINT RHipJoint
	{
		OFFSET 0 0 0
		CHANNELS 3 Zrotation Yrotation Xrotation
		JOINT RightUpLeg
		{
			OFFSET -1.20803 -1.82114 0.91038
			CHANNELS 3 Zrotation Yrotation Xrotation
			JOINT RightLeg
			{
				OFFSET -2.54916 -7.00377 0.00000
				CHANNELS 3 Zrotation Yrotation Xrotation
				JOINT RightFoot
				{
					OFFSET -2.56374 -7.04382 0.00000
					CHANNELS 3 Zrotation Yrotation Xrotation
					JOINT RightToeBase
					{
						OFFSET -0.23520 -0.64621 2.09921
						CHANNELS 3 Zrotation Yrotation Xrotation
						End Site
						{
							OFFSET -0.00000 -0.00000 1.10065
						}
					}
				}
			}
		}
	}
	JOINT LowerBack
	{
		OFFSET 0 0 0
		CHANNELS 3 Zrotation Yrotation Xrotation
		JOINT Spine
		{
			OFFSET 0.05492 2.10797 -0.12074
			CHANNELS 3 Zrotation Yrotation Xrotation
			JOINT Spine1
			{
				OFFSET 0.04577 2.11592 -0.04483
				CHANNELS 3 Zrotation Yrotation Xrotation
				JOINT Neck
				{
					OFFSET 0 0 0
					CHANNELS 3 Zrotation Yrotation Xrotation
					JOINT Neck1
					{
						OFFSET -0.10759 1.80167 0.15770
						CHANNELS 3 Zrotation Yrotation Xrotation
						JOINT Head
						{
							OFFSET 0.09237 1.77509 -0.40848
							CHANNELS 3 Zrotation Yrotation Xrotation
							End Site
							{
								OFFSET 0.03805 1.84093 -0.15754
							}
						}
					}
				}
				JOINT LeftShoulder
				{
					OFFSET 0 0 0
					CHANNELS 3 Zrotation Yrotation Xrotation
					JOINT LeftArm
					{
						OFFSET 3.42372 1.09575 -0.28209
						CHANNELS 3 Zrotation Yrotation Xrotation
						JOINT LeftForeArm
						{
							OFFSET 4.95681 -0.00000 0.00000
							CHANNELS 3 Zrotation Yrotation Xrotation
							JOINT LeftHand
							{
								OFFSET 3.40915 -0.00000 0.00000
								CHANNELS 3 Zrotation Yrotation Xrotation
								JOINT LeftFingerBase
								{
									OFFSET 0 0 0
									CHANNELS 3 Zrotation Yrotation Xrotation
									JOINT LeftHandIndex1
									{
										OFFSET 0.61640 -0.00000 0.00000
										CHANNELS 3 Zrotation Yrotation Xrotation
										End Site
										{
											OFFSET 0.49696 -0.00000 0.00000
										}
									}
								}
								JOINT LThumb
								{
									OFFSET 0 0 0
									CHANNELS 3 Zrotation Yrotation Xrotation
									End Site
									{
										OFFSET 0.50455 -0.00000 0.50455
									}
								}
							}
						}
					}
				}
				JOINT RightShoulder
				{
					OFFSET 0 0 0
					CHANNELS 3 Zrotation Yrotation Xrotation
					JOINT RightArm
					{
						OFFSET -3.24731 1.15872 -0.32221
						CHANNELS 3 Zrotation Yrotation Xrotation
						JOINT RightForeArm
						{
							OFFSET -5.35200 -0.00000 0.00000
							CHANNELS 3 Zrotation Yrotation Xrotation
							JOINT RightHand
							{
								OFFSET -3.43721 -0.00000 -0.00000
								CHANNELS 3 Zrotation Yrotation Xrotation
								JOINT RightFingerBase
								{
									OFFSET 0 0 0
									CHANNELS 3 Zrotation Yrotation Xrotation
									JOINT RightHandIndex1
									{
										OFFSET -0.72009 -0.00000 0.00000
										CHANNELS 3 Zrotation Yrotation Xrotation
										End Site
										{
											OFFSET -0.58056 -0.00000 0.00000
										}
									}
								}
								JOINT RThumb
								{
									OFFSET 0 0 0
									CHANNELS 3 Zrotation Yrotation Xrotation
									End Site
									{
										OFFSET -0.58942 -0.00000 0.58942
									}
								}
							}
						}
					}
				}
			}
		}
	}
}
MOTION
Frames: 14
Frame Time: 0.03125
0.00 0.00 0.00 0 0 0 0 0 0 -21 0 0 0 0 0 0 0 0 0 0 0 0 0 0 21 0 0 0 0 0 0 0 0 0 0 0 0 0 0 0 0 0 0 0 0 0 0 -16 0 0 21 0 0 11 0 0 0 -8 0 0 0 0 0 0 0 0 0 0 0 0 0 0 0 0 0 0 0 0 8 0 0 0 0 0 0 0 0 0 0 0 0 0 0 0 0 0
0.00 0.00 0.00 -145.3540 -85.8190 146.8880 0.0000 0.0000 0.0000 -16.3475 -4.9741 -14.6233 5.1044 13.5004 41.2719 0.0965 -10.6774 -8.9103 0.3322 3.7042 10.2458 0.0000 0.0000 0.0000 25.8280 4.4944 -11.2406 -2.8597 -10.4644 30.4942 -0.6585 11.4301 -15.4623 -1.2370 -7.0527 19.8716 2.5952 -0.3881 7.2288 4.3662 -0.3987 2.4494 3.0876 -0.2704 -1.5059 -9.8604 0.5588 -11.7406 2.5706 0.3732 41.0027 2.7799 -1.7444 16.8102 0.0000 0.0000 0.0000 -91.0644 8.5725 25.5331 21.0286 -31.8618 -6.0651 -0.0000 0.0000 -5.0400 14.4767 20.0367 5.0552 -7.1250 0.0000 -0.0000 -13.8397 50.1056 -1.7716 0.0000 0.0000 0.0000 84.6612 -3.0929 14.7074 -13.3171 21.7500 -2.5696 0.0000 -0.0000 -7.8778 -20.1489 9.7972 -3.5726 7.1250 -0.0000 -0.0000 4.8674 -19.5770 2.9657
0.00 0.00 0.00 -108.2720 -83.3509 108.8920 0.0000 0.0000 0.0000 -10.1688 -6.0119 -23.7342 9.5392 17.1425 57.9368 -0.0639 -5.5331 5.4745 0.1516 2.5089 6.9143 0.0000 0.0000 0.0000 30.7039 0.3900 -7.3818 -1.9722 -8.8079 25.1964 -0.5245 11.0042 -14.0412 -0.9687 -6.2661 17.5584 6.7464 -0.2970 7.2555 5.3985 -0.1172 3.0656 1.8168 -0.1491 -0.8765 -9.7388 -0.1286 -11.4933 2.7857 -0.7848 40.6876 2.6623 -2.1364 16.6813 0.0000 -0.0000 0.0000 -90.7230 8.0947 25.0941 20.1795 -30.8580 -5.6231 -0.0000 -0.0000 0.1474 9.3950 19.0127 3.0854 -7.1250 0.0000 -0.0000 -18.1955 48.3577 -1.5549 0.0000 -0.0000 0.0000 85.2453 -2.1619 13.4598 -14.3805 23.2761 -2.9768 0.0000 -0.0000 -9.8999 -19.4738 9.9459 -3.4950 7.1250 -0.0000 -0.0000 5.3499 -19.4676 3.2753
0.00 0.00 0.00 -110.7750 -82.1050 110.1350 0.0000 0.0000 0.0000 -6.7083 -5.5555 -36.1355 14.9966 19.3889 75.2264 1.0558 1.9017 18.8788 0.9812 6.3053 17.6729 0.0000 0.0000 0.0000 32.3272 -1.4305 -0.9571 -1.0712 -6.5793 18.4749 -0.3706 10.0493 -12.0683 -0.8586 -5.9091 16.5209 7.5222 0.1499 7.9277 5.7903 0.5110 3.5956 1.7482 0.1555 -0.6733 -10.3620 -0.1997 -11.0562 3.2180 -0.9821 40.8689 2.9374 -2.2719 16.6978 0.0000 0.0000 0.0000 -91.2970 8.6099 23.5685 19.2528 -29.7316 -5.1556 -0.0000 0.0000 -1.6008 14.3984 20.2110 5.0685 -7.1250 0.0000 -0.0000 -13.9820 50.2655 -1.8462 0.0000 0.0000 0.0000 84.8486 -1.5607 15.8046 -15.9061 25.3931 -3.6056 0.0000 -0.0000 -11.4987 -20.3249 10.3731 -3.8156 7.1250 -0.0000 -0.0000 4.7513 -18.9553 2.9604
0.00 0.00 0.00 -147.3840 -79.2300 141.6280 0.0000 0.0000 0.0000 -6.9072 -5.1168 -39.8753 7.3965 15.6569 50.3584 0.6238 0.4207 14.7854 0.0652 1.6473 4.5320 0.0000 0.0000 0.0000 31.5429 1.9319 4.7173 -4.5380 -12.8438 38.7866 -2.0228 9.9894 -25.5439 -0.0557 -1.5224 4.1874 7.2645 1.6334 9.1113 3.7041 2.4131 5.4114 -0.4256 1.1848 0.6971 -9.4707 0.3288 -10.0399 4.0547 -0.9173 40.6457 3.1463 -2.0195 16.2812 -0.0000 -0.0000 0.0000 -89.4387 9.9451 14.2429 12.5768 -20.6640 -2.3018 -0.0000 -0.0000 1.7885 11.2559 20.0788 3.9087 -7.1250 0.0000 -0.0000 -16.9050 49.6525 -1.9899 -0.0000 -0.0000 0.0000 84.3181 -2.7913 24.2588 -23.3762 34.4976 -7.3502 0.0000 -0.0000 -16.1931 -21.8659 10.1532 -4.0465 7.1250 -0.0000 -0.0000 3.6532 -19.0700 2.2637
0.00 0.00 0.00 -151.5730 -78.2436 144.5150 0.0000 0.0000 0.0000 -7.3748 -5.3690 -29.9861 3.4855 11.4423 33.7864 0.9810 6.0755 17.6724 0.1658 2.6235 7.2323 0.0000 0.0000 0.0000 29.4398 0.2315 2.2443 -7.7623 -15.9416 51.7018 -2.4957 12.8280 -28.5564 -0.2195 3.0162 -8.3238 6.8775 1.3310 7.9633 3.4351 1.8781 5.5307 -0.4180 0.9406 1.4131 -9.2381 1.0052 -10.0411 4.0749 -0.0808 41.2445 3.2490 -1.7055 16.5120 0.0000 -0.0000 0.0000 -89.3316 11.5689 12.6432 11.3016 -18.7490 -1.8717 -0.0000 -0.0000 1.7163 10.4832 20.2841 3.6703 -7.1250 0.0000 -0.0000 -17.7169 49.7330 -2.1268 0.0000 -0.0000 0.0000 83.9389 -5.0663 24.4067 -26.0755 37.2832 -8.9333 0.0000 -0.0000 -18.1308 -19.5475 9.1225 -3.2219 7.1250 -0.0000 -0.0000 5.2915 -20.3292 3.1368
0.00 0.00 0.00 -149.6690 -77.5134 142.2390 0.0000 0.0000 0.0000 -7.7190 -5.1984 -18.5257 1.1667 6.8568 19.2918 1.2803 12.2289 20.7240 0.5066 4.5627 12.6653 0.0000 0.0000 0.0000 28.2474 -0.7226 1.6122 -12.2526 -18.4954 66.7874 -3.2299 14.9010 -32.6566 -0.5942 4.9349 -13.7229 6.1938 1.0254 4.6966 3.7551 1.2983 4.3169 0.3665 0.6575 1.8927 -8.8535 1.6444 -9.1116 3.9473 0.4088 42.6832 3.1994 -1.6383 17.0274 -0.0000 -0.0000 0.0000 -89.3077 16.2801 11.2304 10.8685 -18.0865 -1.7349 -0.0000 -0.0000 4.5291 9.2290 19.3203 3.0771 -7.1250 0.0000 -0.0000 -18.4755 48.6275 -1.7068 -0.0000 -0.0000 0.0000 82.8895 -11.1782 24.2493 -29.9957 40.8897 -11.4068 0.0000 -0.0000 -19.2124 -19.8799 7.7414 -2.7886 7.1250 -0.0000 -0.0000 5.0493 -21.7664 2.8277
0.00 0.00 0.00 -159.2000 -77.4272 151.0340 0.0000 0.0000 0.0000 -11.4477 -0.5677 -9.8879 0.3299 3.6917 10.2109 1.6108 15.8566 23.7614 0.2717 3.3531 9.2634 0.0000 0.0000 0.0000 23.4248 -0.6044 -0.2395 -17.2416 -19.8166 81.9114 -2.2519 17.6740 -27.9446 -0.4340 4.2274 -11.7173 4.0994 1.4751 3.4810 2.9528 1.8760 3.7093 0.7072 0.9357 1.9041 -8.0268 1.4650 -8.0991 3.6509 0.0146 41.7332 2.8161 -1.6690 16.2783 -0.0000 0.0000 0.0000 -88.3281 21.9590 15.0613 14.1941 -23.0115 -2.9035 -0.0000 0.0000 -5.8356 11.7957 21.0070 4.2813 -7.1250 0.0000 -0.0000 -16.7910 50.6317 -2.3884 -0.0000 0.0000 0.0000 83.3887 -14.0260 22.0347 -31.1028 41.8201 -12.1383 0.0000 -0.0000 -19.1709 -18.2969 5.3553 -1.7676 7.1250 -0.0000 -0.0000 6.2500 -24.3435 3.1359
0.00 0.00 0.00 -155.7680 -77.3363 147.8350 0.0000 0.0000 0.0000 -12.6654 2.8701 -8.4862 1.0337 6.4667 18.1446 0.8060 1.8376 16.4401 0.0141 0.7658 2.1047 0.0000 0.0000 0.0000 19.0357 0.1004 -0.3308 -22.5792 -19.8398 97.5603 -0.2957 24.2543 -19.0618 -0.3351 3.7202 -10.2908 3.7836 1.2822 2.0620 3.6785 1.4946 3.7966 1.6722 0.7301 2.7570 -8.5673 1.2998 -8.8537 2.6905 0.6187 40.5050 2.5746 -1.5101 15.7799 0.0000 -0.0000 0.0000 -89.3192 27.3495 13.5785 15.7151 -25.1328 -3.5241 -0.0000 0.0000 -11.7089 7.4440 15.8893 2.0487 -7.1250 0.0000 -0.0000 -18.7629 45.1296 -0.0623 0.0000 -0.0000 0.0000 82.3996 -17.4017 21.0056 -37.4496 46.4842 -16.5653 0.0000 -0.0000 -21.1237 -15.9900 4.2989 -1.2305 7.1250 -0.0000 -0.0000 8.0169 -25.5007 3.8199
0.00 0.00 0.00 -153.2460 -78.6754 145.2700 0.0000 0.0000 0.0000 -14.1332 3.0427 -12.4287 2.8049 10.3723 30.1909 -0.2352 -9.4732 -0.8559 0.2935 3.4838 9.6288 0.0000 0.0000 0.0000 16.7782 0.4701 0.1400 -24.9244 -19.4084 104.5356 0.5994 27.0958 -15.3066 -0.2567 3.2597 -9.0025 2.9841 1.0424 4.4182 3.7325 1.3107 3.5503 2.1209 0.6050 1.1593 -8.6619 1.0151 -9.5757 2.1618 0.5927 40.2931 2.3665 -1.5670 15.8627 0.0000 -0.0000 0.0000 -89.8512 27.1444 8.1717 14.0147 -22.7557 -2.8338 -0.0000 0.0000 -7.9442 7.6559 17.2580 2.2837 -7.1250 0.0000 -0.0000 -19.0822 46.4550 -0.7106 0.0000 -0.0000 0.0000 82.6412 -17.7416 20.0089 -38.7003 47.2807 -17.4783 0.0000 -0.0000 -22.9953 -16.6058 5.4935 -1.6353 7.1250 -0.0000 -0.0000 7.5019 -24.2528 3.7894
0.00 0.00 0.00 -144.4760 -80.7960 136.5920 0.0000 0.0000 0.0000 -15.3959 2.6364 -15.7745 5.3013 13.7153 42.1087 -0.3365 -16.7349 -8.0543 1.7053 8.2231 23.3939 0.0000 0.0000 0.0000 12.2995 -4.1988 -6.8275 -29.7995 -17.5210 119.8437 0.2547 13.2369 -5.6198 -0.1234 2.2643 -6.2366 3.6578 2.4659 8.1193 3.1514 3.2712 5.3539 0.9726 1.5767 1.0256 -9.8040 -0.8009 -8.9493 3.8112 -2.6355 40.7844 2.8216 -2.8534 16.2809 0.0000 0.0000 0.0000 -90.4185 15.2156 4.6518 14.5213 -23.4750 -3.0327 -0.0000 0.0000 -2.1709 24.3229 26.9378 11.5722 -7.1250 0.0000 -0.0000 -6.6671 59.0024 -2.2878 0.0000 0.0000 0.0000 87.1728 -6.5142 12.2042 -21.1912 32.0509 -6.1511 0.0000 -0.0000 -12.2209 -20.6088 5.9902 -2.2474 7.1250 -0.0000 -0.0000 4.5225 -23.5871 2.3420
0.00 0.00 0.00 -138.4820 -82.8836 132.8510 0.0000 0.0000 0.0000 -17.2291 2.8289 -9.2946 2.2822 9.4306 27.1519 -0.5031 -14.4192 -2.4761 1.7885 8.4108 23.9691 0.0000 0.0000 0.0000 5.7688 -14.6787 -18.4355 -31.6630 -16.3616 126.2324 0.0474 14.2115 -9.4112 -0.0915 1.9510 -5.3703 3.3401 2.3565 8.1793 3.0654 3.1575 4.9093 1.0518 1.5182 0.5142 -10.0366 -1.4157 -8.9040 4.2055 -3.4906 39.7888 2.8982 -3.1073 15.8454 -0.0000 0.0000 0.0000 -91.7838 14.9721 15.6890 22.7523 -33.8168 -6.9999 -0.0000 0.0000 -10.8821 14.2097 19.5253 4.8375 -7.1250 0.0000 -0.0000 -13.8989 49.5592 -1.5899 -0.0000 0.0000 0.0000 85.1151 -8.6762 18.6025 -24.2846 35.4638 -7.8711 0.0000 -0.0000 -7.6565 -18.3109 10.5012 -3.4515 7.1250 -0.0000 -0.0000 6.1789 -18.9672 3.8575
0.00 0.00 0.00 -133.4820 -87.4991 129.7540 0.0000 0.0000 0.0000 -19.8119 3.6561 -2.1580 0.3315 3.7001 10.2345 -0.4731 -13.5569 11.5929 2.3906 9.6362 27.8065 0.0000 0.0000 0.0000 1.8128 -24.6639 -29.5059 -32.6426 -15.6256 129.7866 -0.4960 16.5845 -16.1119 -0.0713 1.7229 -4.7406 -1.3593 1.2329 8.7409 2.5835 1.3962 4.5734 3.3116 0.5782 -0.2596 -10.0352 -1.5976 -9.6206 4.3939 -3.5690 38.7670 2.9531 -3.0310 15.5030 0.0000 0.0000 0.0000 -91.3530 14.5895 24.4962 29.2765 -40.2651 -10.9390 -0.0000 0.0000 -10.8043 16.4306 19.3955 5.5932 -7.1250 0.0000 -0.0000 -11.7368 49.7704 -1.3974 0.0000 0.0000 0.0000 83.5639 -8.3840 20.6852 -26.6418 37.8354 -9.2785 0.0000 -0.0000 -12.4871 -18.8582 7.9332 -2.6990 7.1250 -0.0000 -0.0000 5.7907 -21.6194 3.2662
0.00 0.00 0.00 -88.2017 -86.7688 86.3753 0.0000 0.0000 0.0000 -15.7630 -2.8147 3.9174 0.0000 -0.0000 -0.0000 -0.6537 -16.4627 15.1398 1.2033 6.9597 19.5961 0.0000 0.0000 0.0000 15.0758 -12.7720 -45.5255 -28.9551 -17.9570 117.0727 -0.6683 11.0687 -15.4484 -0.0003 -0.1149 0.3157 -2.8600 1.5868 10.6230 1.7172 1.6820 4.7767 3.2003 0.7112 -1.1125 -9.2873 -2.3972 -10.2295 7.0609 -5.6891 37.5651 3.6162 -3.3911 15.3246 -0.0000 0.0000 0.0000 -84.8199 9.8926 31.3968 39.5045 -47.7736 -18.0714 -0.0000 0.0000 -9.2835 13.7878 17.2955 4.1727 -7.1250 0.0000 -0.0000 -13.5068 47.2928 -0.7777 -0.0000 0.0000 0.0000 83.7236 -5.9333 21.2578 -28.4486 39.5259 -10.4079 0.0000 -0.0000 -14.7076 -20.0914 8.4927 -3.0921 7.1250 -0.0000 -0.0000 4.8971 -20.9600 2.8315
